{
    "notes": [
        {
            "note_id": 1,
            "pitch": 65,
            "start_time": 56.0,
            "duration": 0.990625,
            "velocity": 111,
            "mute": 0,
            "probability": 1,
            "velocity_deviation": 0,
            "release_velocity": 0
        },
        {
            "note_id": 2,
            "pitch": 67,
            "start_time": 56.990625,
            "duration": 1.0166666666666666,
            "velocity": 116,
            "mute": 0,
            "probability": 1,
            "velocity_deviation": 0,
            "release_velocity": 0
        },
        {
            "note_id": 3,
            "pitch": 67,
            "start_time": 64.990625,
            "duration": 0.9270833333333334,
            "velocity": 112,
            "mute": 0,
            "probability": 1,
            "velocity_deviation": 0,
            "release_velocity": 0
        },
        {
            "note_id": 4,
            "pitch": 67,
            "start_time": 88.990625,
            "duration": 1.3291666666666666,
            "velocity": 115,
            "mute": 0,
            "probability": 1,
            "velocity_deviation": 0,
            "release_velocity": 0
        },
        {
            "note_id": 5,
            "pitch": 67,
            "start_time": 91.990625,
            "duration": 0.5302083333333333,
            "velocity": 99,
            "mute": 0,
            "probability": 1,
            "velocity_deviation": 0,
            "release_velocity": 0
        },
        {
            "note_id": 6,
            "pitch": 67,
            "start_time": 93.990625,
            "duration": 0.965625,
            "velocity": 104,
            "mute": 0,
            "probability": 1,
            "velocity_deviation": 0,
            "release_velocity": 0
        },
        {
            "note_id": 7,
            "pitch": 69,
            "start_time": 94.95625,
            "duration": 0.6458333333333334,
            "velocity": 107,
            "mute": 0,
            "probability": 1,
            "velocity_deviation": 0,
            "release_velocity": 0
        },
        {
            "note_id": 8,
            "pitch": 69,
            "start_time": 96.95625,
            "duration": 0.7229166666666667,
            "velocity": 108,
            "mute": 0,
            "probability": 1,
            "velocity_deviation": 0,
            "release_velocity": 0
        },
        {
            "note_id": 9,
            "pitch": 69,
            "start_time": 102.95625,
            "duration": 0.5375,
            "velocity": 105,
            "mute": 0,
            "probability": 1,
            "velocity_deviation": 0,
            "release_velocity": 0
        },
        {
            "note_id": 10,
            "pitch": 69,
            "start_time": 104.95625,
            "duration": 0.7354166666666666,
            "velocity": 106,
            "mute": 0,
            "probability": 1,
            "velocity_deviation": 0,
            "release_velocity": 0
        },
        {
            "note_id": 11,
            "pitch": 69,
            "start_time": 110.95625,
            "duration": 0.7145833333333333,
            "velocity": 110,
            "mute": 0,
            "probability": 1,
            "velocity_deviation": 0,
            "release_velocity": 0
        },
        {
            "note_id": 12,
            "pitch": 69,
            "start_time": 112.95625,
            "duration": 0.7625,
            "velocity": 111,
            "mute": 0,
            "probability": 1,
            "velocity_deviation": 0,
            "release_velocity": 0
        },
        {
            "note_id": 13,
            "pitch": 69,
            "start_time": 114.95625,
            "duration": 1.0739583333333333,
            "velocity": 112,
            "mute": 0,
            "probability": 1,
            "velocity_deviation": 0,
            "release_velocity": 0
        },
        {
            "note_id": 14,
            "pitch": 69,
            "start_time": 118.95625,
            "duration": 0.6333333333333333,
            "velocity": 110,
            "mute": 0,
            "probability": 1,
            "velocity_deviation": 0,
            "release_velocity": 0
        },
        {
            "note_id": 15,
            "pitch": 69,
            "start_time": 120.95625,
            "duration": 0.6135416666666667,
            "velocity": 106,
            "mute": 0,
            "probability": 1,
            "velocity_deviation": 0,
            "release_velocity": 0
        },
        {
            "note_id": 16,
            "pitch": 69,
            "start_time": 122.95625,
            "duration": 1.040625,
            "velocity": 107,
            "mute": 0,
            "probability": 1,
            "velocity_deviation": 0,
            "release_velocity": 0
        },
        {
            "note_id": 17,
            "pitch": 69,
            "start_time": 126.95625,
            "duration": 0.6333333333333333,
            "velocity": 105,
            "mute": 0,
            "probability": 1,
            "velocity_deviation": 0,
            "release_velocity": 0
        },
        {
            "note_id": 18,
            "pitch": 69,
            "start_time": 128.95625,
            "duration": 0.5489583333333333,
            "velocity": 108,
            "mute": 0,
            "probability": 1,
            "velocity_deviation": 0,
            "release_velocity": 0
        },
        {
            "note_id": 19,
            "pitch": 69,
            "start_time": 134.95625,
            "duration": 0.471875,
            "velocity": 104,
            "mute": 0,
            "probability": 1,
            "velocity_deviation": 0,
            "release_velocity": 0
        },
        {
            "note_id": 20,
            "pitch": 69,
            "start_time": 136.95625,
            "duration": 0.40208333333333335,
            "velocity": 101,
            "mute": 0,
            "probability": 1,
            "velocity_deviation": 0,
            "release_velocity": 0
        },
        {
            "note_id": 21,
            "pitch": 69,
            "start_time": 142.95625,
            "duration": 0.63125,
            "velocity": 104,
            "mute": 0,
            "probability": 1,
            "velocity_deviation": 0,
            "release_velocity": 0
        },
        {
            "note_id": 22,
            "pitch": 69,
            "start_time": 144.95625,
            "duration": 0.6197916666666666,
            "velocity": 106,
            "mute": 0,
            "probability": 1,
            "velocity_deviation": 0,
            "release_velocity": 0
        },
        {
            "note_id": 23,
            "pitch": 69,
            "start_time": 147.45625,
            "duration": 0.159375,
            "velocity": 101,
            "mute": 0,
            "probability": 1,
            "velocity_deviation": 0,
            "release_velocity": 0
        },
        {
            "note_id": 24,
            "pitch": 69,
            "start_time": 147.95625,
            "duration": 1.0114583333333333,
            "velocity": 112,
            "mute": 0,
            "probability": 1,
            "velocity_deviation": 0,
            "release_velocity": 0
        },
        {
            "note_id": 25,
            "pitch": 69,
            "start_time": 151.95625,
            "duration": 0.959375,
            "velocity": 104,
            "mute": 0,
            "probability": 1,
            "velocity_deviation": 0,
            "release_velocity": 0
        },
        {
            "note_id": 26,
            "pitch": 69,
            "start_time": 155.95625,
            "duration": 1.815625,
            "velocity": 113,
            "mute": 0,
            "probability": 1,
            "velocity_deviation": 0,
            "release_velocity": 0
        },
        {
            "note_id": 27,
            "pitch": 71,
            "start_time": 157.771875,
            "duration": 1.1958333333333333,
            "velocity": 113,
            "mute": 0,
            "probability": 1,
            "velocity_deviation": 0,
            "release_velocity": 0
        },
        {
            "note_id": 28,
            "pitch": 71,
            "start_time": 165.771875,
            "duration": 0.9541666666666666,
            "velocity": 112,
            "mute": 0,
            "probability": 1,
            "velocity_deviation": 0,
            "release_velocity": 0
        },
        {
            "note_id": 29,
            "pitch": 71,
            "start_time": 173.771875,
            "duration": 0.9989583333333333,
            "velocity": 109,
            "mute": 0,
            "probability": 1,
            "velocity_deviation": 0,
            "release_velocity": 0
        },
        {
            "note_id": 30,
            "pitch": 71,
            "start_time": 203.771875,
            "duration": 1.0875,
            "velocity": 114,
            "mute": 0,
            "probability": 1,
            "velocity_deviation": 0,
            "release_velocity": 0
        },
        {
            "note_id": 31,
            "pitch": 72,
            "start_time": 204.859375,
            "duration": 0.490625,
            "velocity": 105,
            "mute": 0,
            "probability": 1,
            "velocity_deviation": 0,
            "release_velocity": 0
        },
        {
            "note_id": 32,
            "pitch": 72,
            "start_time": 206.859375,
            "duration": 0.490625,
            "velocity": 118,
            "mute": 0,
            "probability": 1,
            "velocity_deviation": 0,
            "release_velocity": 0
        },
        {
            "note_id": 33,
            "pitch": 72,
            "start_time": 208.359375,
            "duration": 0.8229166666666666,
            "velocity": 119,
            "mute": 0,
            "probability": 1,
            "velocity_deviation": 0,
            "release_velocity": 0
        },
        {
            "note_id": 34,
            "pitch": 72,
            "start_time": 212.859375,
            "duration": 0.4791666666666667,
            "velocity": 102,
            "mute": 0,
            "probability": 1,
            "velocity_deviation": 0,
            "release_velocity": 0
        },
        {
            "note_id": 35,
            "pitch": 72,
            "start_time": 214.859375,
            "duration": 0.5770833333333333,
            "velocity": 116,
            "mute": 0,
            "probability": 1,
            "velocity_deviation": 0,
            "release_velocity": 0
        },
        {
            "note_id": 36,
            "pitch": 72,
            "start_time": 216.359375,
            "duration": 1.6166666666666667,
            "velocity": 117,
            "mute": 0,
            "probability": 1,
            "velocity_deviation": 0,
            "release_velocity": 0
        },
        {
            "note_id": 37,
            "pitch": 72,
            "start_time": 220.859375,
            "duration": 0.5197916666666667,
            "velocity": 116,
            "mute": 0,
            "probability": 1,
            "velocity_deviation": 0,
            "release_velocity": 0
        },
        {
            "note_id": 38,
            "pitch": 72,
            "start_time": 222.859375,
            "duration": 0.5375,
            "velocity": 117,
            "mute": 0,
            "probability": 1,
            "velocity_deviation": 0,
            "release_velocity": 0
        },
        {
            "note_id": 39,
            "pitch": 72,
            "start_time": 227.359375,
            "duration": 0.23541666666666666,
            "velocity": 110,
            "mute": 0,
            "probability": 1,
            "velocity_deviation": 0,
            "release_velocity": 0
        },
        {
            "note_id": 40,
            "pitch": 72,
            "start_time": 228.859375,
            "duration": 0.525,
            "velocity": 112,
            "mute": 0,
            "probability": 1,
            "velocity_deviation": 0,
            "release_velocity": 0
        },
        {
            "note_id": 41,
            "pitch": 72,
            "start_time": 230.859375,
            "duration": 0.5552083333333333,
            "velocity": 109,
            "mute": 0,
            "probability": 1,
            "velocity_deviation": 0,
            "release_velocity": 0
        },
        {
            "note_id": 42,
            "pitch": 72,
            "start_time": 235.359375,
            "duration": 0.21041666666666667,
            "velocity": 102,
            "mute": 0,
            "probability": 1,
            "velocity_deviation": 0,
            "release_velocity": 0
        },
        {
            "note_id": 43,
            "pitch": 72,
            "start_time": 236.859375,
            "duration": 0.5166666666666666,
            "velocity": 96,
            "mute": 0,
            "probability": 1,
            "velocity_deviation": 0,
            "release_velocity": 0
        },
        {
            "note_id": 44,
            "pitch": 72,
            "start_time": 238.859375,
            "duration": 0.4791666666666667,
            "velocity": 114,
            "mute": 0,
            "probability": 1,
            "velocity_deviation": 0,
            "release_velocity": 0
        },
        {
            "note_id": 45,
            "pitch": 72,
            "start_time": 244.859375,
            "duration": 0.4666666666666667,
            "velocity": 105,
            "mute": 0,
            "probability": 1,
            "velocity_deviation": 0,
            "release_velocity": 0
        },
        {
            "note_id": 46,
            "pitch": 72,
            "start_time": 246.859375,
            "duration": 0.5104166666666666,
            "velocity": 111,
            "mute": 0,
            "probability": 1,
            "velocity_deviation": 0,
            "release_velocity": 0
        },
        {
            "note_id": 47,
            "pitch": 72,
            "start_time": 251.359375,
            "duration": 0.18541666666666667,
            "velocity": 118,
            "mute": 0,
            "probability": 1,
            "velocity_deviation": 0,
            "release_velocity": 0
        },
        {
            "note_id": 48,
            "pitch": 72,
            "start_time": 252.859375,
            "duration": 0.4864583333333333,
            "velocity": 107,
            "mute": 0,
            "probability": 1,
            "velocity_deviation": 0,
            "release_velocity": 0
        },
        {
            "note_id": 49,
            "pitch": 72,
            "start_time": 254.859375,
            "duration": 0.51875,
            "velocity": 114,
            "mute": 0,
            "probability": 1,
            "velocity_deviation": 0,
            "release_velocity": 0
        },
        {
            "note_id": 50,
            "pitch": 72,
            "start_time": 263.359375,
            "duration": 0.9083333333333333,
            "velocity": 114,
            "mute": 0,
            "probability": 1,
            "velocity_deviation": 0,
            "release_velocity": 0
        },
        {
            "note_id": 51,
            "pitch": 72,
            "start_time": 265.359375,
            "duration": 0.965625,
            "velocity": 110,
            "mute": 0,
            "probability": 1,
            "velocity_deviation": 0,
            "release_velocity": 0
        },
        {
            "note_id": 52,
            "pitch": 74,
            "start_time": 266.325,
            "duration": 0.3020833333333333,
            "velocity": 116,
            "mute": 0,
            "probability": 1,
            "velocity_deviation": 0,
            "release_velocity": 0
        },
        {
            "note_id": 53,
            "pitch": 74,
            "start_time": 268.325,
            "duration": 0.3302083333333333,
            "velocity": 111,
            "mute": 0,
            "probability": 1,
            "velocity_deviation": 0,
            "release_velocity": 0
        },
        {
            "note_id": 54,
            "pitch": 74,
            "start_time": 271.075,
            "duration": 0.625,
            "velocity": 118,
            "mute": 0,
            "probability": 1,
            "velocity_deviation": 0,
            "release_velocity": 0
        },
        {
            "note_id": 55,
            "pitch": 74,
            "start_time": 274.325,
            "duration": 0.32708333333333334,
            "velocity": 109,
            "mute": 0,
            "probability": 1,
            "velocity_deviation": 0,
            "release_velocity": 0
        },
        {
            "note_id": 56,
            "pitch": 74,
            "start_time": 276.325,
            "duration": 0.31979166666666664,
            "velocity": 107,
            "mute": 0,
            "probability": 1,
            "velocity_deviation": 0,
            "release_velocity": 0
        },
        {
            "note_id": 57,
            "pitch": 74,
            "start_time": 282.325,
            "duration": 0.31354166666666666,
            "velocity": 112,
            "mute": 0,
            "probability": 1,
            "velocity_deviation": 0,
            "release_velocity": 0
        },
        {
            "note_id": 58,
            "pitch": 74,
            "start_time": 284.325,
            "duration": 0.30625,
            "velocity": 96,
            "mute": 0,
            "probability": 1,
            "velocity_deviation": 0,
            "release_velocity": 0
        },
        {
            "note_id": 59,
            "pitch": 74,
            "start_time": 290.325,
            "duration": 0.3,
            "velocity": 96,
            "mute": 0,
            "probability": 1,
            "velocity_deviation": 0,
            "release_velocity": 0
        },
        {
            "note_id": 60,
            "pitch": 74,
            "start_time": 292.325,
            "duration": 0.29375,
            "velocity": 109,
            "mute": 0,
            "probability": 1,
            "velocity_deviation": 0,
            "release_velocity": 0
        },
        {
            "note_id": 61,
            "pitch": 74,
            "start_time": 298.325,
            "duration": 0.2739583333333333,
            "velocity": 56,
            "mute": 0,
            "probability": 1,
            "velocity_deviation": 0,
            "release_velocity": 0
        },
        {
            "note_id": 62,
            "pitch": 74,
            "start_time": 300.325,
            "duration": 0.3177083333333333,
            "velocity": 99,
            "mute": 0,
            "probability": 1,
            "velocity_deviation": 0,
            "release_velocity": 0
        },
        {
            "note_id": 63,
            "pitch": 74,
            "start_time": 306.325,
            "duration": 0.278125,
            "velocity": 76,
            "mute": 0,
            "probability": 1,
            "velocity_deviation": 0,
            "release_velocity": 0
        },
        {
            "note_id": 64,
            "pitch": 74,
            "start_time": 308.325,
            "duration": 0.32708333333333334,
            "velocity": 109,
            "mute": 0,
            "probability": 1,
            "velocity_deviation": 0,
            "release_velocity": 0
        },
        {
            "note_id": 65,
            "pitch": 74,
            "start_time": 312.075,
            "duration": 0.5427083333333333,
            "velocity": 117,
            "mute": 0,
            "probability": 1,
            "velocity_deviation": 0,
            "release_velocity": 0
        },
        {
            "note_id": 66,
            "pitch": 74,
            "start_time": 314.325,
            "duration": 0.28854166666666664,
            "velocity": 103,
            "mute": 0,
            "probability": 1,
            "velocity_deviation": 0,
            "release_velocity": 0
        },
        {
            "note_id": 67,
            "pitch": 74,
            "start_time": 316.325,
            "duration": 0.31875,
            "velocity": 107,
            "mute": 0,
            "probability": 1,
            "velocity_deviation": 0,
            "release_velocity": 0
        },
        {
            "note_id": 68,
            "pitch": 76,
            "start_time": 316.64375,
            "duration": 0.29791666666666666,
            "velocity": 115,
            "mute": 0,
            "probability": 1,
            "velocity_deviation": 0,
            "release_velocity": 0
        },
        {
            "note_id": 69,
            "pitch": 76,
            "start_time": 318.64375,
            "duration": 0.234375,
            "velocity": 116,
            "mute": 0,
            "probability": 1,
            "velocity_deviation": 0,
            "release_velocity": 0
        },
        {
            "note_id": 70,
            "pitch": 76,
            "start_time": 322.64375,
            "duration": 1.1635416666666667,
            "velocity": 119,
            "mute": 0,
            "probability": 1,
            "velocity_deviation": 0,
            "release_velocity": 0
        },
        {
            "note_id": 71,
            "pitch": 76,
            "start_time": 324.64375,
            "duration": 0.221875,
            "velocity": 116,
            "mute": 0,
            "probability": 1,
            "velocity_deviation": 0,
            "release_velocity": 0
        },
        {
            "note_id": 72,
            "pitch": 76,
            "start_time": 326.64375,
            "duration": 0.24687499999999998,
            "velocity": 117,
            "mute": 0,
            "probability": 1,
            "velocity_deviation": 0,
            "release_velocity": 0
        },
        {
            "note_id": 73,
            "pitch": 76,
            "start_time": 332.64375,
            "duration": 0.22395833333333334,
            "velocity": 119,
            "mute": 0,
            "probability": 1,
            "velocity_deviation": 0,
            "release_velocity": 0
        },
        {
            "note_id": 74,
            "pitch": 76,
            "start_time": 334.64375,
            "duration": 0.221875,
            "velocity": 117,
            "mute": 0,
            "probability": 1,
            "velocity_deviation": 0,
            "release_velocity": 0
        },
        {
            "note_id": 75,
            "pitch": 76,
            "start_time": 340.64375,
            "duration": 0.2552083333333333,
            "velocity": 109,
            "mute": 0,
            "probability": 1,
            "velocity_deviation": 0,
            "release_velocity": 0
        },
        {
            "note_id": 76,
            "pitch": 76,
            "start_time": 342.64375,
            "duration": 0.22395833333333334,
            "velocity": 116,
            "mute": 0,
            "probability": 1,
            "velocity_deviation": 0,
            "release_velocity": 0
        },
        {
            "note_id": 77,
            "pitch": 76,
            "start_time": 348.64375,
            "duration": 0.20625,
            "velocity": 111,
            "mute": 0,
            "probability": 1,
            "velocity_deviation": 0,
            "release_velocity": 0
        },
        {
            "note_id": 78,
            "pitch": 76,
            "start_time": 350.64375,
            "duration": 0.19166666666666665,
            "velocity": 113,
            "mute": 0,
            "probability": 1,
            "velocity_deviation": 0,
            "release_velocity": 0
        },
        {
            "note_id": 79,
            "pitch": 76,
            "start_time": 356.64375,
            "duration": 0.26979166666666665,
            "velocity": 111,
            "mute": 0,
            "probability": 1,
            "velocity_deviation": 0,
            "release_velocity": 0
        },
        {
            "note_id": 80,
            "pitch": 76,
            "start_time": 358.64375,
            "duration": 0.26145833333333335,
            "velocity": 116,
            "mute": 0,
            "probability": 1,
            "velocity_deviation": 0,
            "release_velocity": 0
        },
        {
            "note_id": 81,
            "pitch": 76,
            "start_time": 361.64375,
            "duration": 0.6020833333333333,
            "velocity": 116,
            "mute": 0,
            "probability": 1,
            "velocity_deviation": 0,
            "release_velocity": 0
        },
        {
            "note_id": 82,
            "pitch": 76,
            "start_time": 364.64375,
            "duration": 0.29375,
            "velocity": 114,
            "mute": 0,
            "probability": 1,
            "velocity_deviation": 0,
            "release_velocity": 0
        },
        {
            "note_id": 83,
            "pitch": 76,
            "start_time": 366.64375,
            "duration": 0.21041666666666667,
            "velocity": 119,
            "mute": 0,
            "probability": 1,
            "velocity_deviation": 0,
            "release_velocity": 0
        },
        {
            "note_id": 84,
            "pitch": 77,
            "start_time": 366.8541666666667,
            "duration": 0.9093749999999999,
            "velocity": 113,
            "mute": 0,
            "probability": 1,
            "velocity_deviation": 0,
            "release_velocity": 0
        },
        {
            "note_id": 85,
            "pitch": 77,
            "start_time": 374.8541666666667,
            "duration": 0.659375,
            "velocity": 114,
            "mute": 0,
            "probability": 1,
            "velocity_deviation": 0,
            "release_velocity": 0
        },
        {
            "note_id": 86,
            "pitch": 79,
            "start_time": 375.51354166666664,
            "duration": 0.21666666666666667,
            "velocity": 109,
            "mute": 0,
            "probability": 1,
            "velocity_deviation": 0,
            "release_velocity": 0
        },
        {
            "note_id": 87,
            "pitch": 79,
            "start_time": 376.01354166666664,
            "duration": 0.3614583333333333,
            "velocity": 116,
            "mute": 0,
            "probability": 1,
            "velocity_deviation": 0,
            "release_velocity": 0
        }
    ]
}