{
    "notes": [
        {
            "note_id": 1,
            "pitch": 55,
            "start_time": 1084.5,
            "duration": 0.2685546875,
            "velocity": 100,
            "mute": 0,
            "probability": 1,
            "velocity_deviation": 0,
            "release_velocity": 0
        },
        {
            "note_id": 2,
            "pitch": 59,
            "start_time": 1084.75,
            "duration": 0.3068359375,
            "velocity": 93,
            "mute": 0,
            "probability": 1,
            "velocity_deviation": 0,
            "release_velocity": 0
        },
        {
            "note_id": 3,
            "pitch": 60,
            "start_time": 1085.0,
            "duration": 0.27438151041666664,
            "velocity": 99,
            "mute": 0,
            "probability": 1,
            "velocity_deviation": 0,
            "release_velocity": 0
        },
        {
            "note_id": 4,
            "pitch": 62,
            "start_time": 1085.25,
            "duration": 0.2562174479166667,
            "velocity": 100,
            "mute": 0,
            "probability": 1,
            "velocity_deviation": 0,
            "release_velocity": 0
        },
        {
            "note_id": 5,
            "pitch": 55,
            "start_time": 1085.5,
            "duration": 0.28020833333333334,
            "velocity": 90,
            "mute": 0,
            "probability": 1,
            "velocity_deviation": 0,
            "release_velocity": 0
        },
        {
            "note_id": 6,
            "pitch": 59,
            "start_time": 1085.75,
            "duration": 0.29680989583333334,
            "velocity": 88,
            "mute": 0,
            "probability": 1,
            "velocity_deviation": 0,
            "release_velocity": 0
        },
        {
            "note_id": 7,
            "pitch": 60,
            "start_time": 1086.0,
            "duration": 0.2573567708333333,
            "velocity": 97,
            "mute": 0,
            "probability": 1,
            "velocity_deviation": 0,
            "release_velocity": 0
        },
        {
            "note_id": 8,
            "pitch": 62,
            "start_time": 1086.25,
            "duration": 0.2573567708333333,
            "velocity": 94,
            "mute": 0,
            "probability": 1,
            "velocity_deviation": 0,
            "release_velocity": 0
        },
        {
            "note_id": 9,
            "pitch": 55,
            "start_time": 1086.5,
            "duration": 0.27906901041666665,
            "velocity": 67,
            "mute": 0,
            "probability": 1,
            "velocity_deviation": 0,
            "release_velocity": 0
        },
        {
            "note_id": 10,
            "pitch": 59,
            "start_time": 1086.75,
            "duration": 0.28444010416666665,
            "velocity": 87,
            "mute": 0,
            "probability": 1,
            "velocity_deviation": 0,
            "release_velocity": 0
        },
        {
            "note_id": 11,
            "pitch": 60,
            "start_time": 1087.0,
            "duration": 0.26318359375,
            "velocity": 96,
            "mute": 0,
            "probability": 1,
            "velocity_deviation": 0,
            "release_velocity": 0
        },
        {
            "note_id": 12,
            "pitch": 62,
            "start_time": 1087.25,
            "duration": 0.2674153645833333,
            "velocity": 99,
            "mute": 0,
            "probability": 1,
            "velocity_deviation": 0,
            "release_velocity": 0
        },
        {
            "note_id": 13,
            "pitch": 55,
            "start_time": 1087.5,
            "duration": 0.2979817708333333,
            "velocity": 70,
            "mute": 0,
            "probability": 1,
            "velocity_deviation": 0,
            "release_velocity": 0
        },
        {
            "note_id": 14,
            "pitch": 59,
            "start_time": 1087.75,
            "duration": 0.29026692708333335,
            "velocity": 94,
            "mute": 0,
            "probability": 1,
            "velocity_deviation": 0,
            "release_velocity": 0
        },
        {
            "note_id": 15,
            "pitch": 60,
            "start_time": 1088.0,
            "duration": 0.2638671875,
            "velocity": 86,
            "mute": 0,
            "probability": 1,
            "velocity_deviation": 0,
            "release_velocity": 0
        },
        {
            "note_id": 16,
            "pitch": 62,
            "start_time": 1088.25,
            "duration": 0.2627278645833333,
            "velocity": 106,
            "mute": 0,
            "probability": 1,
            "velocity_deviation": 0,
            "release_velocity": 0
        },
        {
            "note_id": 17,
            "pitch": 57,
            "start_time": 1088.5,
            "duration": 0.28024088541666664,
            "velocity": 85,
            "mute": 0,
            "probability": 1,
            "velocity_deviation": 0,
            "release_velocity": 0
        },
        {
            "note_id": 18,
            "pitch": 60,
            "start_time": 1088.75,
            "duration": 0.28557942708333334,
            "velocity": 97,
            "mute": 0,
            "probability": 1,
            "velocity_deviation": 0,
            "release_velocity": 0
        },
        {
            "note_id": 19,
            "pitch": 62,
            "start_time": 1089.0,
            "duration": 0.2519856770833333,
            "velocity": 106,
            "mute": 0,
            "probability": 1,
            "velocity_deviation": 0,
            "release_velocity": 0
        },
        {
            "note_id": 20,
            "pitch": 64,
            "start_time": 1089.25,
            "duration": 0.2685872395833333,
            "velocity": 87,
            "mute": 0,
            "probability": 1,
            "velocity_deviation": 0,
            "release_velocity": 0
        },
        {
            "note_id": 21,
            "pitch": 57,
            "start_time": 1089.5,
            "duration": 0.28444010416666665,
            "velocity": 94,
            "mute": 0,
            "probability": 1,
            "velocity_deviation": 0,
            "release_velocity": 0
        },
        {
            "note_id": 22,
            "pitch": 60,
            "start_time": 1089.75,
            "duration": 0.2979817708333333,
            "velocity": 99,
            "mute": 0,
            "probability": 1,
            "velocity_deviation": 0,
            "release_velocity": 0
        },
        {
            "note_id": 23,
            "pitch": 62,
            "start_time": 1090.0,
            "duration": 0.2573567708333333,
            "velocity": 97,
            "mute": 0,
            "probability": 1,
            "velocity_deviation": 0,
            "release_velocity": 0
        },
        {
            "note_id": 24,
            "pitch": 64,
            "start_time": 1090.25,
            "duration": 0.30804036458333334,
            "velocity": 88,
            "mute": 0,
            "probability": 1,
            "velocity_deviation": 0,
            "release_velocity": 0
        },
        {
            "note_id": 25,
            "pitch": 57,
            "start_time": 1090.5,
            "duration": 0.27975260416666664,
            "velocity": 85,
            "mute": 0,
            "probability": 1,
            "velocity_deviation": 0,
            "release_velocity": 0
        },
        {
            "note_id": 26,
            "pitch": 60,
            "start_time": 1090.75,
            "duration": 0.2809244791666667,
            "velocity": 100,
            "mute": 0,
            "probability": 1,
            "velocity_deviation": 0,
            "release_velocity": 0
        },
        {
            "note_id": 27,
            "pitch": 62,
            "start_time": 1091.0,
            "duration": 0.2615559895833333,
            "velocity": 99,
            "mute": 0,
            "probability": 1,
            "velocity_deviation": 0,
            "release_velocity": 0
        },
        {
            "note_id": 28,
            "pitch": 64,
            "start_time": 1091.25,
            "duration": 0.3115559895833333,
            "velocity": 95,
            "mute": 0,
            "probability": 1,
            "velocity_deviation": 0,
            "release_velocity": 0
        },
        {
            "note_id": 29,
            "pitch": 57,
            "start_time": 1091.5,
            "duration": 0.2755859375,
            "velocity": 79,
            "mute": 0,
            "probability": 1,
            "velocity_deviation": 0,
            "release_velocity": 0
        },
        {
            "note_id": 30,
            "pitch": 60,
            "start_time": 1091.75,
            "duration": 0.27513020833333335,
            "velocity": 101,
            "mute": 0,
            "probability": 1,
            "velocity_deviation": 0,
            "release_velocity": 0
        },
        {
            "note_id": 31,
            "pitch": 62,
            "start_time": 1092.0,
            "duration": 0.2627278645833333,
            "velocity": 96,
            "mute": 0,
            "probability": 1,
            "velocity_deviation": 0,
            "release_velocity": 0
        },
        {
            "note_id": 32,
            "pitch": 64,
            "start_time": 1092.25,
            "duration": 0.21438802083333333,
            "velocity": 102,
            "mute": 0,
            "probability": 1,
            "velocity_deviation": 0,
            "release_velocity": 0
        },
        {
            "note_id": 33,
            "pitch": 53,
            "start_time": 1092.5,
            "duration": 0.251953125,
            "velocity": 98,
            "mute": 0,
            "probability": 1,
            "velocity_deviation": 0,
            "release_velocity": 0
        },
        {
            "note_id": 34,
            "pitch": 57,
            "start_time": 1092.75,
            "duration": 0.30263671875,
            "velocity": 95,
            "mute": 0,
            "probability": 1,
            "velocity_deviation": 0,
            "release_velocity": 0
        },
        {
            "note_id": 35,
            "pitch": 59,
            "start_time": 1093.0,
            "duration": 0.25315755208333335,
            "velocity": 97,
            "mute": 0,
            "probability": 1,
            "velocity_deviation": 0,
            "release_velocity": 0
        },
        {
            "note_id": 36,
            "pitch": 60,
            "start_time": 1093.25,
            "duration": 0.28981119791666665,
            "velocity": 91,
            "mute": 0,
            "probability": 1,
            "velocity_deviation": 0,
            "release_velocity": 0
        },
        {
            "note_id": 37,
            "pitch": 53,
            "start_time": 1093.5,
            "duration": 0.27744140625,
            "velocity": 83,
            "mute": 0,
            "probability": 1,
            "velocity_deviation": 0,
            "release_velocity": 0
        },
        {
            "note_id": 38,
            "pitch": 57,
            "start_time": 1093.75,
            "duration": 0.30263671875,
            "velocity": 87,
            "mute": 0,
            "probability": 1,
            "velocity_deviation": 0,
            "release_velocity": 0
        },
        {
            "note_id": 39,
            "pitch": 59,
            "start_time": 1094.0,
            "duration": 0.22906901041666666,
            "velocity": 97,
            "mute": 0,
            "probability": 1,
            "velocity_deviation": 0,
            "release_velocity": 0
        },
        {
            "note_id": 40,
            "pitch": 60,
            "start_time": 1094.25,
            "duration": 0.2685546875,
            "velocity": 90,
            "mute": 0,
            "probability": 1,
            "velocity_deviation": 0,
            "release_velocity": 0
        },
        {
            "note_id": 41,
            "pitch": 53,
            "start_time": 1094.5,
            "duration": 0.2685546875,
            "velocity": 82,
            "mute": 0,
            "probability": 1,
            "velocity_deviation": 0,
            "release_velocity": 0
        },
        {
            "note_id": 42,
            "pitch": 57,
            "start_time": 1094.75,
            "duration": 0.30218098958333334,
            "velocity": 90,
            "mute": 0,
            "probability": 1,
            "velocity_deviation": 0,
            "release_velocity": 0
        },
        {
            "note_id": 43,
            "pitch": 59,
            "start_time": 1095.0,
            "duration": 0.24150390624999998,
            "velocity": 99,
            "mute": 0,
            "probability": 1,
            "velocity_deviation": 0,
            "release_velocity": 0
        },
        {
            "note_id": 44,
            "pitch": 60,
            "start_time": 1095.25,
            "duration": 0.26901041666666664,
            "velocity": 99,
            "mute": 0,
            "probability": 1,
            "velocity_deviation": 0,
            "release_velocity": 0
        },
        {
            "note_id": 45,
            "pitch": 53,
            "start_time": 1095.5,
            "duration": 0.2685872395833333,
            "velocity": 62,
            "mute": 0,
            "probability": 1,
            "velocity_deviation": 0,
            "release_velocity": 0
        },
        {
            "note_id": 46,
            "pitch": 57,
            "start_time": 1095.75,
            "duration": 0.29143880208333334,
            "velocity": 87,
            "mute": 0,
            "probability": 1,
            "velocity_deviation": 0,
            "release_velocity": 0
        },
        {
            "note_id": 47,
            "pitch": 59,
            "start_time": 1096.0,
            "duration": 0.26435546875,
            "velocity": 92,
            "mute": 0,
            "probability": 1,
            "velocity_deviation": 0,
            "release_velocity": 0
        },
        {
            "note_id": 48,
            "pitch": 60,
            "start_time": 1096.25,
            "duration": 0.2573567708333333,
            "velocity": 100,
            "mute": 0,
            "probability": 1,
            "velocity_deviation": 0,
            "release_velocity": 0
        },
        {
            "note_id": 49,
            "pitch": 55,
            "start_time": 1096.5,
            "duration": 0.21790364583333333,
            "velocity": 77,
            "mute": 0,
            "probability": 1,
            "velocity_deviation": 0,
            "release_velocity": 0
        },
        {
            "note_id": 50,
            "pitch": 59,
            "start_time": 1096.75,
            "duration": 0.30804036458333334,
            "velocity": 94,
            "mute": 0,
            "probability": 1,
            "velocity_deviation": 0,
            "release_velocity": 0
        },
        {
            "note_id": 51,
            "pitch": 60,
            "start_time": 1097.0,
            "duration": 0.24147135416666665,
            "velocity": 99,
            "mute": 0,
            "probability": 1,
            "velocity_deviation": 0,
            "release_velocity": 0
        },
        {
            "note_id": 52,
            "pitch": 62,
            "start_time": 1097.25,
            "duration": 0.29567057291666665,
            "velocity": 99,
            "mute": 0,
            "probability": 1,
            "velocity_deviation": 0,
            "release_velocity": 0
        },
        {
            "note_id": 53,
            "pitch": 55,
            "start_time": 1097.5,
            "duration": 0.26201171875,
            "velocity": 82,
            "mute": 0,
            "probability": 1,
            "velocity_deviation": 0,
            "release_velocity": 0
        },
        {
            "note_id": 54,
            "pitch": 59,
            "start_time": 1097.75,
            "duration": 0.30035807291666666,
            "velocity": 90,
            "mute": 0,
            "probability": 1,
            "velocity_deviation": 0,
            "release_velocity": 0
        },
        {
            "note_id": 55,
            "pitch": 60,
            "start_time": 1098.0,
            "duration": 0.2291015625,
            "velocity": 104,
            "mute": 0,
            "probability": 1,
            "velocity_deviation": 0,
            "release_velocity": 0
        },
        {
            "note_id": 56,
            "pitch": 62,
            "start_time": 1098.25,
            "duration": 0.28024088541666664,
            "velocity": 91,
            "mute": 0,
            "probability": 1,
            "velocity_deviation": 0,
            "release_velocity": 0
        },
        {
            "note_id": 57,
            "pitch": 64,
            "start_time": 1098.5,
            "duration": 0.31272786458333335,
            "velocity": 92,
            "mute": 0,
            "probability": 1,
            "velocity_deviation": 0,
            "release_velocity": 0
        },
        {
            "note_id": 58,
            "pitch": 62,
            "start_time": 1098.75,
            "duration": 0.27906901041666665,
            "velocity": 106,
            "mute": 0,
            "probability": 1,
            "velocity_deviation": 0,
            "release_velocity": 0
        },
        {
            "note_id": 59,
            "pitch": 60,
            "start_time": 1099.0,
            "duration": 0.2744140625,
            "velocity": 103,
            "mute": 0,
            "probability": 1,
            "velocity_deviation": 0,
            "release_velocity": 0
        },
        {
            "note_id": 60,
            "pitch": 59,
            "start_time": 1099.25,
            "duration": 0.29098307291666664,
            "velocity": 106,
            "mute": 0,
            "probability": 1,
            "velocity_deviation": 0,
            "release_velocity": 0
        },
        {
            "note_id": 61,
            "pitch": 60,
            "start_time": 1099.5,
            "duration": 0.30221354166666664,
            "velocity": 102,
            "mute": 0,
            "probability": 1,
            "velocity_deviation": 0,
            "release_velocity": 0
        },
        {
            "note_id": 62,
            "pitch": 59,
            "start_time": 1099.75,
            "duration": 0.27513020833333335,
            "velocity": 87,
            "mute": 0,
            "probability": 1,
            "velocity_deviation": 0,
            "release_velocity": 0
        },
        {
            "note_id": 63,
            "pitch": 60,
            "start_time": 1100.0,
            "duration": 0.28912760416666666,
            "velocity": 104,
            "mute": 0,
            "probability": 1,
            "velocity_deviation": 0,
            "release_velocity": 0
        },
        {
            "note_id": 64,
            "pitch": 59,
            "start_time": 1100.25,
            "duration": 0.24029947916666666,
            "velocity": 105,
            "mute": 0,
            "probability": 1,
            "velocity_deviation": 0,
            "release_velocity": 0
        },
        {
            "note_id": 65,
            "pitch": 55,
            "start_time": 1100.5,
            "duration": 0.28024088541666664,
            "velocity": 102,
            "mute": 0,
            "probability": 1,
            "velocity_deviation": 0,
            "release_velocity": 0
        },
        {
            "note_id": 66,
            "pitch": 59,
            "start_time": 1100.75,
            "duration": 0.29143880208333334,
            "velocity": 93,
            "mute": 0,
            "probability": 1,
            "velocity_deviation": 0,
            "release_velocity": 0
        },
        {
            "note_id": 67,
            "pitch": 60,
            "start_time": 1101.0,
            "duration": 0.24147135416666665,
            "velocity": 106,
            "mute": 0,
            "probability": 1,
            "velocity_deviation": 0,
            "release_velocity": 0
        },
        {
            "note_id": 68,
            "pitch": 62,
            "start_time": 1101.25,
            "duration": 0.30686848958333335,
            "velocity": 104,
            "mute": 0,
            "probability": 1,
            "velocity_deviation": 0,
            "release_velocity": 0
        },
        {
            "note_id": 69,
            "pitch": 60,
            "start_time": 1101.5,
            "duration": 0.30270182291666664,
            "velocity": 97,
            "mute": 0,
            "probability": 1,
            "velocity_deviation": 0,
            "release_velocity": 0
        },
        {
            "note_id": 70,
            "pitch": 59,
            "start_time": 1101.75,
            "duration": 0.2744466145833333,
            "velocity": 109,
            "mute": 0,
            "probability": 1,
            "velocity_deviation": 0,
            "release_velocity": 0
        },
        {
            "note_id": 71,
            "pitch": 55,
            "start_time": 1102.0,
            "duration": 0.26904296875,
            "velocity": 95,
            "mute": 0,
            "probability": 1,
            "velocity_deviation": 0,
            "release_velocity": 0
        },
        {
            "note_id": 72,
            "pitch": 59,
            "start_time": 1102.25,
            "duration": 0.2685546875,
            "velocity": 102,
            "mute": 0,
            "probability": 1,
            "velocity_deviation": 0,
            "release_velocity": 0
        },
        {
            "note_id": 73,
            "pitch": 55,
            "start_time": 1102.5,
            "duration": 0.2573567708333333,
            "velocity": 104,
            "mute": 0,
            "probability": 1,
            "velocity_deviation": 0,
            "release_velocity": 0
        },
        {
            "note_id": 74,
            "pitch": 59,
            "start_time": 1102.75,
            "duration": 0.30804036458333334,
            "velocity": 95,
            "mute": 0,
            "probability": 1,
            "velocity_deviation": 0,
            "release_velocity": 0
        },
        {
            "note_id": 75,
            "pitch": 60,
            "start_time": 1103.0,
            "duration": 0.20784505208333334,
            "velocity": 104,
            "mute": 0,
            "probability": 1,
            "velocity_deviation": 0,
            "release_velocity": 0
        },
        {
            "note_id": 76,
            "pitch": 62,
            "start_time": 1103.25,
            "duration": 0.329296875,
            "velocity": 104,
            "mute": 0,
            "probability": 1,
            "velocity_deviation": 0,
            "release_velocity": 0
        },
        {
            "note_id": 77,
            "pitch": 60,
            "start_time": 1103.5,
            "duration": 0.29563802083333335,
            "velocity": 105,
            "mute": 0,
            "probability": 1,
            "velocity_deviation": 0,
            "release_velocity": 0
        },
        {
            "note_id": 78,
            "pitch": 59,
            "start_time": 1103.75,
            "duration": 0.24143880208333332,
            "velocity": 108,
            "mute": 0,
            "probability": 1,
            "velocity_deviation": 0,
            "release_velocity": 0
        },
        {
            "note_id": 79,
            "pitch": 55,
            "start_time": 1104.0,
            "duration": 0.2798177083333333,
            "velocity": 77,
            "mute": 0,
            "probability": 1,
            "velocity_deviation": 0,
            "release_velocity": 0
        },
        {
            "note_id": 80,
            "pitch": 59,
            "start_time": 1104.25,
            "duration": 0.24615885416666666,
            "velocity": 92,
            "mute": 0,
            "probability": 1,
            "velocity_deviation": 0,
            "release_velocity": 0
        },
        {
            "note_id": 81,
            "pitch": 57,
            "start_time": 1104.5,
            "duration": 0.24733072916666665,
            "velocity": 106,
            "mute": 0,
            "probability": 1,
            "velocity_deviation": 0,
            "release_velocity": 0
        },
        {
            "note_id": 82,
            "pitch": 60,
            "start_time": 1104.75,
            "duration": 0.30263671875,
            "velocity": 100,
            "mute": 0,
            "probability": 1,
            "velocity_deviation": 0,
            "release_velocity": 0
        },
        {
            "note_id": 83,
            "pitch": 62,
            "start_time": 1105.0,
            "duration": 0.22330729166666666,
            "velocity": 100,
            "mute": 0,
            "probability": 1,
            "velocity_deviation": 0,
            "release_velocity": 0
        },
        {
            "note_id": 84,
            "pitch": 64,
            "start_time": 1105.25,
            "duration": 0.31927083333333334,
            "velocity": 89,
            "mute": 0,
            "probability": 1,
            "velocity_deviation": 0,
            "release_velocity": 0
        },
        {
            "note_id": 85,
            "pitch": 62,
            "start_time": 1105.5,
            "duration": 0.2744140625,
            "velocity": 95,
            "mute": 0,
            "probability": 1,
            "velocity_deviation": 0,
            "release_velocity": 0
        },
        {
            "note_id": 86,
            "pitch": 60,
            "start_time": 1105.75,
            "duration": 0.27978515625,
            "velocity": 96,
            "mute": 0,
            "probability": 1,
            "velocity_deviation": 0,
            "release_velocity": 0
        },
        {
            "note_id": 87,
            "pitch": 57,
            "start_time": 1106.0,
            "duration": 0.2755533854166667,
            "velocity": 88,
            "mute": 0,
            "probability": 1,
            "velocity_deviation": 0,
            "release_velocity": 0
        },
        {
            "note_id": 88,
            "pitch": 60,
            "start_time": 1106.25,
            "duration": 0.2573567708333333,
            "velocity": 95,
            "mute": 0,
            "probability": 1,
            "velocity_deviation": 0,
            "release_velocity": 0
        },
        {
            "note_id": 89,
            "pitch": 57,
            "start_time": 1106.5,
            "duration": 0.2573567708333333,
            "velocity": 99,
            "mute": 0,
            "probability": 1,
            "velocity_deviation": 0,
            "release_velocity": 0
        },
        {
            "note_id": 90,
            "pitch": 60,
            "start_time": 1106.75,
            "duration": 0.30266927083333334,
            "velocity": 95,
            "mute": 0,
            "probability": 1,
            "velocity_deviation": 0,
            "release_velocity": 0
        },
        {
            "note_id": 91,
            "pitch": 62,
            "start_time": 1107.0,
            "duration": 0.2508138020833333,
            "velocity": 97,
            "mute": 0,
            "probability": 1,
            "velocity_deviation": 0,
            "release_velocity": 0
        },
        {
            "note_id": 92,
            "pitch": 64,
            "start_time": 1107.25,
            "duration": 0.3196940104166667,
            "velocity": 98,
            "mute": 0,
            "probability": 1,
            "velocity_deviation": 0,
            "release_velocity": 0
        },
        {
            "note_id": 93,
            "pitch": 62,
            "start_time": 1107.5,
            "duration": 0.28020833333333334,
            "velocity": 104,
            "mute": 0,
            "probability": 1,
            "velocity_deviation": 0,
            "release_velocity": 0
        },
        {
            "note_id": 94,
            "pitch": 60,
            "start_time": 1107.75,
            "duration": 0.2779296875,
            "velocity": 113,
            "mute": 0,
            "probability": 1,
            "velocity_deviation": 0,
            "release_velocity": 0
        },
        {
            "note_id": 95,
            "pitch": 57,
            "start_time": 1108.0,
            "duration": 0.21673177083333334,
            "velocity": 99,
            "mute": 0,
            "probability": 1,
            "velocity_deviation": 0,
            "release_velocity": 0
        },
        {
            "note_id": 96,
            "pitch": 60,
            "start_time": 1108.25,
            "duration": 0.21904296874999998,
            "velocity": 97,
            "mute": 0,
            "probability": 1,
            "velocity_deviation": 0,
            "release_velocity": 0
        },
        {
            "note_id": 97,
            "pitch": 53,
            "start_time": 1108.5,
            "duration": 0.2519856770833333,
            "velocity": 107,
            "mute": 0,
            "probability": 1,
            "velocity_deviation": 0,
            "release_velocity": 0
        },
        {
            "note_id": 98,
            "pitch": 57,
            "start_time": 1108.75,
            "duration": 0.3138671875,
            "velocity": 91,
            "mute": 0,
            "probability": 1,
            "velocity_deviation": 0,
            "release_velocity": 0
        },
        {
            "note_id": 99,
            "pitch": 59,
            "start_time": 1109.0,
            "duration": 0.22373046875,
            "velocity": 90,
            "mute": 0,
            "probability": 1,
            "velocity_deviation": 0,
            "release_velocity": 0
        },
        {
            "note_id": 100,
            "pitch": 60,
            "start_time": 1109.25,
            "duration": 0.2933268229166667,
            "velocity": 96,
            "mute": 0,
            "probability": 1,
            "velocity_deviation": 0,
            "release_velocity": 0
        },
        {
            "note_id": 101,
            "pitch": 59,
            "start_time": 1109.5,
            "duration": 0.29563802083333335,
            "velocity": 90,
            "mute": 0,
            "probability": 1,
            "velocity_deviation": 0,
            "release_velocity": 0
        },
        {
            "note_id": 102,
            "pitch": 57,
            "start_time": 1109.75,
            "duration": 0.29680989583333334,
            "velocity": 96,
            "mute": 0,
            "probability": 1,
            "velocity_deviation": 0,
            "release_velocity": 0
        },
        {
            "note_id": 103,
            "pitch": 53,
            "start_time": 1110.0,
            "duration": 0.2632161458333333,
            "velocity": 94,
            "mute": 0,
            "probability": 1,
            "velocity_deviation": 0,
            "release_velocity": 0
        },
        {
            "note_id": 104,
            "pitch": 57,
            "start_time": 1110.25,
            "duration": 0.26901041666666664,
            "velocity": 84,
            "mute": 0,
            "probability": 1,
            "velocity_deviation": 0,
            "release_velocity": 0
        },
        {
            "note_id": 105,
            "pitch": 53,
            "start_time": 1110.5,
            "duration": 0.2573567708333333,
            "velocity": 96,
            "mute": 0,
            "probability": 1,
            "velocity_deviation": 0,
            "release_velocity": 0
        },
        {
            "note_id": 106,
            "pitch": 57,
            "start_time": 1110.75,
            "duration": 0.29684244791666664,
            "velocity": 90,
            "mute": 0,
            "probability": 1,
            "velocity_deviation": 0,
            "release_velocity": 0
        },
        {
            "note_id": 107,
            "pitch": 59,
            "start_time": 1111.0,
            "duration": 0.21904296874999998,
            "velocity": 85,
            "mute": 0,
            "probability": 1,
            "velocity_deviation": 0,
            "release_velocity": 0
        },
        {
            "note_id": 108,
            "pitch": 60,
            "start_time": 1111.25,
            "duration": 0.29680989583333334,
            "velocity": 96,
            "mute": 0,
            "probability": 1,
            "velocity_deviation": 0,
            "release_velocity": 0
        },
        {
            "note_id": 109,
            "pitch": 59,
            "start_time": 1111.5,
            "duration": 0.291015625,
            "velocity": 102,
            "mute": 0,
            "probability": 1,
            "velocity_deviation": 0,
            "release_velocity": 0
        },
        {
            "note_id": 110,
            "pitch": 57,
            "start_time": 1111.75,
            "duration": 0.2573567708333333,
            "velocity": 107,
            "mute": 0,
            "probability": 1,
            "velocity_deviation": 0,
            "release_velocity": 0
        },
        {
            "note_id": 111,
            "pitch": 53,
            "start_time": 1112.0,
            "duration": 0.27438151041666664,
            "velocity": 64,
            "mute": 0,
            "probability": 1,
            "velocity_deviation": 0,
            "release_velocity": 0
        },
        {
            "note_id": 112,
            "pitch": 57,
            "start_time": 1112.25,
            "duration": 0.2573567708333333,
            "velocity": 101,
            "mute": 0,
            "probability": 1,
            "velocity_deviation": 0,
            "release_velocity": 0
        },
        {
            "note_id": 113,
            "pitch": 55,
            "start_time": 1112.5,
            "duration": 0.251953125,
            "velocity": 101,
            "mute": 0,
            "probability": 1,
            "velocity_deviation": 0,
            "release_velocity": 0
        },
        {
            "note_id": 114,
            "pitch": 59,
            "start_time": 1112.75,
            "duration": 0.30263671875,
            "velocity": 98,
            "mute": 0,
            "probability": 1,
            "velocity_deviation": 0,
            "release_velocity": 0
        },
        {
            "note_id": 115,
            "pitch": 60,
            "start_time": 1113.0,
            "duration": 0.23027343749999998,
            "velocity": 100,
            "mute": 0,
            "probability": 1,
            "velocity_deviation": 0,
            "release_velocity": 0
        },
        {
            "note_id": 116,
            "pitch": 62,
            "start_time": 1113.25,
            "duration": 0.2573567708333333,
            "velocity": 101,
            "mute": 0,
            "probability": 1,
            "velocity_deviation": 0,
            "release_velocity": 0
        },
        {
            "note_id": 117,
            "pitch": 60,
            "start_time": 1113.5,
            "duration": 0.30804036458333334,
            "velocity": 84,
            "mute": 0,
            "probability": 1,
            "velocity_deviation": 0,
            "release_velocity": 0
        },
        {
            "note_id": 118,
            "pitch": 59,
            "start_time": 1113.75,
            "duration": 0.2744140625,
            "velocity": 105,
            "mute": 0,
            "probability": 1,
            "velocity_deviation": 0,
            "release_velocity": 0
        },
        {
            "note_id": 119,
            "pitch": 55,
            "start_time": 1114.0,
            "duration": 0.24029947916666666,
            "velocity": 87,
            "mute": 0,
            "probability": 1,
            "velocity_deviation": 0,
            "release_velocity": 0
        },
        {
            "note_id": 120,
            "pitch": 64,
            "start_time": 1114.25,
            "duration": 0.286328125,
            "velocity": 111,
            "mute": 0,
            "probability": 1,
            "velocity_deviation": 0,
            "release_velocity": 0
        },
        {
            "note_id": 121,
            "pitch": 55,
            "start_time": 1114.5,
            "duration": 0.2291015625,
            "velocity": 105,
            "mute": 0,
            "probability": 1,
            "velocity_deviation": 0,
            "release_velocity": 0
        },
        {
            "note_id": 122,
            "pitch": 62,
            "start_time": 1114.75,
            "duration": 0.28515625,
            "velocity": 111,
            "mute": 0,
            "probability": 1,
            "velocity_deviation": 0,
            "release_velocity": 0
        },
        {
            "note_id": 123,
            "pitch": 60,
            "start_time": 1115.0,
            "duration": 0.28561197916666664,
            "velocity": 111,
            "mute": 0,
            "probability": 1,
            "velocity_deviation": 0,
            "release_velocity": 0
        },
        {
            "note_id": 124,
            "pitch": 55,
            "start_time": 1115.25,
            "duration": 0.24033203125,
            "velocity": 100,
            "mute": 0,
            "probability": 1,
            "velocity_deviation": 0,
            "release_velocity": 0
        },
        {
            "note_id": 125,
            "pitch": 59,
            "start_time": 1115.5,
            "duration": 0.27978515625,
            "velocity": 107,
            "mute": 0,
            "probability": 1,
            "velocity_deviation": 0,
            "release_velocity": 0
        },
        {
            "note_id": 126,
            "pitch": 60,
            "start_time": 1115.75,
            "duration": 0.29567057291666665,
            "velocity": 101,
            "mute": 0,
            "probability": 1,
            "velocity_deviation": 0,
            "release_velocity": 0
        },
        {
            "note_id": 127,
            "pitch": 59,
            "start_time": 1116.0,
            "duration": 0.24612630208333333,
            "velocity": 101,
            "mute": 0,
            "probability": 1,
            "velocity_deviation": 0,
            "release_velocity": 0
        },
        {
            "note_id": 128,
            "pitch": 53,
            "start_time": 1116.25,
            "duration": 0.06116536458333333,
            "velocity": 100,
            "mute": 0,
            "probability": 1,
            "velocity_deviation": 0,
            "release_velocity": 0
        }
    ]
}