{
    "notes":[
        {
            "note_id":33,
            "pitch":53,
            "start_time":16.0,
            "duration":0.50390625,
            "velocity":98.0,
            "mute":0,
            "probability":1.0,
            "velocity_deviation":0.0,
            "release_velocity":0.0
        },
        {
            "note_id":37,
            "pitch":53,
            "start_time":18.0,
            "duration":0.5548828775391276,
            "velocity":83.0,
            "mute":0,
            "probability":1.0,
            "velocity_deviation":0.0,
            "release_velocity":0.0
        },
        {
            "note_id":41,
            "pitch":53,
            "start_time":20.0,
            "duration":0.5371095050782551,
            "velocity":82.0,
            "mute":0,
            "probability":1.0,
            "velocity_deviation":0.0,
            "release_velocity":0.0
        },
        {
            "note_id":45,
            "pitch":53,
            "start_time":22.0,
            "duration":0.5371745442057942,
            "velocity":62.0,
            "mute":0,
            "probability":1.0,
            "velocity_deviation":0.0,
            "release_velocity":0.0
        },
        {
            "note_id":97,
            "pitch":53,
            "start_time":48.0,
            "duration":0.5039712891275391,
            "velocity":107.0,
            "mute":0,
            "probability":1.0,
            "velocity_deviation":0.0,
            "release_velocity":0.0
        },
        {
            "note_id":103,
            "pitch":53,
            "start_time":51.0,
            "duration":0.5264321615884116,
            "velocity":94.0,
            "mute":0,
            "probability":1.0,
            "velocity_deviation":0.0,
            "release_velocity":0.0
        },
        {
            "note_id":105,
            "pitch":53,
            "start_time":52.0,
            "duration":0.5147134115884116,
            "velocity":96.0,
            "mute":0,
            "probability":1.0,
            "velocity_deviation":0.0,
            "release_velocity":0.0
        },
        {
            "note_id":111,
            "pitch":53,
            "start_time":55.0,
            "duration":0.5487629557942058,
            "velocity":64.0,
            "mute":0,
            "probability":1.0,
            "velocity_deviation":0.0,
            "release_velocity":0.0
        },
        {
            "note_id":128,
            "pitch":53,
            "start_time":63.5,
            "duration":0.12233079420579421,
            "velocity":100.0,
            "mute":0,
            "probability":1.0,
            "velocity_deviation":0.0,
            "release_velocity":0.0
        },
        {
            "note_id":1,
            "pitch":55,
            "start_time":0.0,
            "duration":0.5371095050782551,
            "velocity":100.0,
            "mute":0,
            "probability":1.0,
            "velocity_deviation":0.0,
            "release_velocity":0.0
        },
        {
            "note_id":5,
            "pitch":55,
            "start_time":2.0,
            "duration":0.5604166666666667,
            "velocity":90.0,
            "mute":0,
            "probability":1.0,
            "velocity_deviation":0.0,
            "release_velocity":0.0
        },
        {
            "note_id":9,
            "pitch":55,
            "start_time":4.0,
            "duration":0.5581379557942058,
            "velocity":67.0,
            "mute":0,
            "probability":1.0,
            "velocity_deviation":0.0,
            "release_velocity":0.0
        },
        {
            "note_id":13,
            "pitch":55,
            "start_time":6.0,
            "duration":0.5959634115884116,
            "velocity":70.0,
            "mute":0,
            "probability":1.0,
            "velocity_deviation":0.0,
            "release_velocity":0.0
        },
        {
            "note_id":49,
            "pitch":55,
            "start_time":24.0,
            "duration":0.4358071615884116,
            "velocity":77.0,
            "mute":0,
            "probability":1.0,
            "velocity_deviation":0.0,
            "release_velocity":0.0
        },
        {
            "note_id":53,
            "pitch":55,
            "start_time":26.0,
            "duration":0.5240233724608725,
            "velocity":82.0,
            "mute":0,
            "probability":1.0,
            "velocity_deviation":0.0,
            "release_velocity":0.0
        },
        {
            "note_id":65,
            "pitch":55,
            "start_time":32.0,
            "duration":0.5604817057942058,
            "velocity":102.0,
            "mute":0,
            "probability":1.0,
            "velocity_deviation":0.0,
            "release_velocity":0.0
        },
        {
            "note_id":71,
            "pitch":55,
            "start_time":35.0,
            "duration":0.5380858724608725,
            "velocity":95.0,
            "mute":0,
            "probability":1.0,
            "velocity_deviation":0.0,
            "release_velocity":0.0
        },
        {
            "note_id":73,
            "pitch":55,
            "start_time":36.0,
            "duration":0.5147134115884116,
            "velocity":104.0,
            "mute":0,
            "probability":1.0,
            "velocity_deviation":0.0,
            "release_velocity":0.0
        },
        {
            "note_id":79,
            "pitch":55,
            "start_time":39.0,
            "duration":0.5596354166666667,
            "velocity":77.0,
            "mute":0,
            "probability":1.0,
            "velocity_deviation":0.0,
            "release_velocity":0.0
        },
        {
            "note_id":113,
            "pitch":55,
            "start_time":56.0,
            "duration":0.50390625,
            "velocity":101.0,
            "mute":0,
            "probability":1.0,
            "velocity_deviation":0.0,
            "release_velocity":0.0
        },
        {
            "note_id":119,
            "pitch":55,
            "start_time":59.0,
            "duration":0.48059882825507827,
            "velocity":87.0,
            "mute":0,
            "probability":1.0,
            "velocity_deviation":0.0,
            "release_velocity":0.0
        },
        {
            "note_id":121,
            "pitch":55,
            "start_time":60.0,
            "duration":0.45820299492174493,
            "velocity":105.0,
            "mute":0,
            "probability":1.0,
            "velocity_deviation":0.0,
            "release_velocity":0.0
        },
        {
            "note_id":124,
            "pitch":55,
            "start_time":61.5,
            "duration":0.4806641275391275,
            "velocity":100.0,
            "mute":0,
            "probability":1.0,
            "velocity_deviation":0.0,
            "release_velocity":0.0
        },
        {
            "note_id":17,
            "pitch":57,
            "start_time":8.0,
            "duration":0.5604817057942058,
            "velocity":85.0,
            "mute":0,
            "probability":1.0,
            "velocity_deviation":0.0,
            "release_velocity":0.0
        },
        {
            "note_id":21,
            "pitch":57,
            "start_time":10.0,
            "duration":0.5688800782550782,
            "velocity":94.0,
            "mute":0,
            "probability":1.0,
            "velocity_deviation":0.0,
            "release_velocity":0.0
        },
        {
            "note_id":25,
            "pitch":57,
            "start_time":12.0,
            "duration":0.5595050782550782,
            "velocity":85.0,
            "mute":0,
            "probability":1.0,
            "velocity_deviation":0.0,
            "release_velocity":0.0
        },
        {
            "note_id":29,
            "pitch":57,
            "start_time":14.0,
            "duration":0.5511717449217449,
            "velocity":79.0,
            "mute":0,
            "probability":1.0,
            "velocity_deviation":0.0,
            "release_velocity":0.0
        },
        {
            "note_id":34,
            "pitch":57,
            "start_time":16.5,
            "duration":0.6052733724608724,
            "velocity":95.0,
            "mute":0,
            "probability":1.0,
            "velocity_deviation":0.0,
            "release_velocity":0.0
        },
        {
            "note_id":38,
            "pitch":57,
            "start_time":18.5,
            "duration":0.6052733724608724,
            "velocity":87.0,
            "mute":0,
            "probability":1.0,
            "velocity_deviation":0.0,
            "release_velocity":0.0
        },
        {
            "note_id":42,
            "pitch":57,
            "start_time":20.5,
            "duration":0.6043620442057942,
            "velocity":90.0,
            "mute":0,
            "probability":1.0,
            "velocity_deviation":0.0,
            "release_velocity":0.0
        },
        {
            "note_id":46,
            "pitch":57,
            "start_time":22.5,
            "duration":0.5828775391275391,
            "velocity":87.0,
            "mute":0,
            "probability":1.0,
            "velocity_deviation":0.0,
            "release_velocity":0.0
        },
        {
            "note_id":81,
            "pitch":57,
            "start_time":40.0,
            "duration":0.49466132825507825,
            "velocity":106.0,
            "mute":0,
            "probability":1.0,
            "velocity_deviation":0.0,
            "release_velocity":0.0
        },
        {
            "note_id":87,
            "pitch":57,
            "start_time":43.0,
            "duration":0.5511067057942058,
            "velocity":88.0,
            "mute":0,
            "probability":1.0,
            "velocity_deviation":0.0,
            "release_velocity":0.0
        },
        {
            "note_id":89,
            "pitch":57,
            "start_time":44.0,
            "duration":0.5147134115884116,
            "velocity":99.0,
            "mute":0,
            "probability":1.0,
            "velocity_deviation":0.0,
            "release_velocity":0.0
        },
        {
            "note_id":95,
            "pitch":57,
            "start_time":47.0,
            "duration":0.43346367174492173,
            "velocity":99.0,
            "mute":0,
            "probability":1.0,
            "velocity_deviation":0.0,
            "release_velocity":0.0
        },
        {
            "note_id":98,
            "pitch":57,
            "start_time":48.5,
            "duration":0.6277345050782551,
            "velocity":91.0,
            "mute":0,
            "probability":1.0,
            "velocity_deviation":0.0,
            "release_velocity":0.0
        },
        {
            "note_id":102,
            "pitch":57,
            "start_time":50.5,
            "duration":0.5936199217449217,
            "velocity":96.0,
            "mute":0,
            "probability":1.0,
            "velocity_deviation":0.0,
            "release_velocity":0.0
        },
        {
            "note_id":104,
            "pitch":57,
            "start_time":51.5,
            "duration":0.5380208333333333,
            "velocity":84.0,
            "mute":0,
            "probability":1.0,
            "velocity_deviation":0.0,
            "release_velocity":0.0
        },
        {
            "note_id":106,
            "pitch":57,
            "start_time":52.5,
            "duration":0.5936849608724609,
            "velocity":90.0,
            "mute":0,
            "probability":1.0,
            "velocity_deviation":0.0,
            "release_velocity":0.0
        },
        {
            "note_id":110,
            "pitch":57,
            "start_time":54.5,
            "duration":0.5147134115884116,
            "velocity":107.0,
            "mute":0,
            "probability":1.0,
            "velocity_deviation":0.0,
            "release_velocity":0.0
        },
        {
            "note_id":112,
            "pitch":57,
            "start_time":55.5,
            "duration":0.5147134115884116,
            "velocity":101.0,
            "mute":0,
            "probability":1.0,
            "velocity_deviation":0.0,
            "release_velocity":0.0
        },
        {
            "note_id":2,
            "pitch":59,
            "start_time":0.5,
            "duration":0.613672005078255,
            "velocity":93.0,
            "mute":0,
            "probability":1.0,
            "velocity_deviation":0.0,
            "release_velocity":0.0
        },
        {
            "note_id":6,
            "pitch":59,
            "start_time":2.5,
            "duration":0.5936199217449217,
            "velocity":88.0,
            "mute":0,
            "probability":1.0,
            "velocity_deviation":0.0,
            "release_velocity":0.0
        },
        {
            "note_id":10,
            "pitch":59,
            "start_time":4.5,
            "duration":0.5688803384115884,
            "velocity":87.0,
            "mute":0,
            "probability":1.0,
            "velocity_deviation":0.0,
            "release_velocity":0.0
        },
        {
            "note_id":14,
            "pitch":59,
            "start_time":6.5,
            "duration":0.5805337891275392,
            "velocity":94.0,
            "mute":0,
            "probability":1.0,
            "velocity_deviation":0.0,
            "release_velocity":0.0
        },
        {
            "note_id":35,
            "pitch":59,
            "start_time":17.0,
            "duration":0.5063150391275392,
            "velocity":97.0,
            "mute":0,
            "probability":1.0,
            "velocity_deviation":0.0,
            "release_velocity":0.0
        },
        {
            "note_id":39,
            "pitch":59,
            "start_time":19.0,
            "duration":0.4581379557942058,
            "velocity":97.0,
            "mute":0,
            "probability":1.0,
            "velocity_deviation":0.0,
            "release_velocity":0.0
        },
        {
            "note_id":43,
            "pitch":59,
            "start_time":21.0,
            "duration":0.48300787753912755,
            "velocity":99.0,
            "mute":0,
            "probability":1.0,
            "velocity_deviation":0.0,
            "release_velocity":0.0
        },
        {
            "note_id":47,
            "pitch":59,
            "start_time":23.0,
            "duration":0.5287108724608724,
            "velocity":92.0,
            "mute":0,
            "probability":1.0,
            "velocity_deviation":0.0,
            "release_velocity":0.0
        },
        {
            "note_id":50,
            "pitch":59,
            "start_time":24.5,
            "duration":0.6160807942057942,
            "velocity":94.0,
            "mute":0,
            "probability":1.0,
            "velocity_deviation":0.0,
            "release_velocity":0.0
        },
        {
            "note_id":54,
            "pitch":59,
            "start_time":26.5,
            "duration":0.6007162108724609,
            "velocity":90.0,
            "mute":0,
            "probability":1.0,
            "velocity_deviation":0.0,
            "release_velocity":0.0
        },
        {
            "note_id":60,
            "pitch":59,
            "start_time":29.5,
            "duration":0.5819662108724609,
            "velocity":106.0,
            "mute":0,
            "probability":1.0,
            "velocity_deviation":0.0,
            "release_velocity":0.0
        },
        {
            "note_id":62,
            "pitch":59,
            "start_time":30.5,
            "duration":0.5502604166666667,
            "velocity":87.0,
            "mute":0,
            "probability":1.0,
            "velocity_deviation":0.0,
            "release_velocity":0.0
        },
        {
            "note_id":64,
            "pitch":59,
            "start_time":31.5,
            "duration":0.48059908841158844,
            "velocity":105.0,
            "mute":0,
            "probability":1.0,
            "velocity_deviation":0.0,
            "release_velocity":0.0
        },
        {
            "note_id":66,
            "pitch":59,
            "start_time":32.5,
            "duration":0.5828775391275391,
            "velocity":93.0,
            "mute":0,
            "probability":1.0,
            "velocity_deviation":0.0,
            "release_velocity":0.0
        },
        {
            "note_id":70,
            "pitch":59,
            "start_time":34.5,
            "duration":0.5488932942057942,
            "velocity":109.0,
            "mute":0,
            "probability":1.0,
            "velocity_deviation":0.0,
            "release_velocity":0.0
        },
        {
            "note_id":72,
            "pitch":59,
            "start_time":35.5,
            "duration":0.5371095050782551,
            "velocity":102.0,
            "mute":0,
            "probability":1.0,
            "velocity_deviation":0.0,
            "release_velocity":0.0
        },
        {
            "note_id":74,
            "pitch":59,
            "start_time":36.5,
            "duration":0.6160807942057942,
            "velocity":95.0,
            "mute":0,
            "probability":1.0,
            "velocity_deviation":0.0,
            "release_velocity":0.0
        },
        {
            "note_id":78,
            "pitch":59,
            "start_time":38.5,
            "duration":0.4828775391275391,
            "velocity":108.0,
            "mute":0,
            "probability":1.0,
            "velocity_deviation":0.0,
            "release_velocity":0.0
        },
        {
            "note_id":80,
            "pitch":59,
            "start_time":39.5,
            "duration":0.49231757825507827,
            "velocity":92.0,
            "mute":0,
            "probability":1.0,
            "velocity_deviation":0.0,
            "release_velocity":0.0
        },
        {
            "note_id":99,
            "pitch":59,
            "start_time":49.0,
            "duration":0.44746087246087246,
            "velocity":90.0,
            "mute":0,
            "probability":1.0,
            "velocity_deviation":0.0,
            "release_velocity":0.0
        },
        {
            "note_id":101,
            "pitch":59,
            "start_time":50.0,
            "duration":0.5912761717449218,
            "velocity":90.0,
            "mute":0,
            "probability":1.0,
            "velocity_deviation":0.0,
            "release_velocity":0.0
        },
        {
            "note_id":107,
            "pitch":59,
            "start_time":53.0,
            "duration":0.43808587246087244,
            "velocity":85.0,
            "mute":0,
            "probability":1.0,
            "velocity_deviation":0.0,
            "release_velocity":0.0
        },
        {
            "note_id":109,
            "pitch":59,
            "start_time":54.0,
            "duration":0.58203125,
            "velocity":102.0,
            "mute":0,
            "probability":1.0,
            "velocity_deviation":0.0,
            "release_velocity":0.0
        },
        {
            "note_id":114,
            "pitch":59,
            "start_time":56.5,
            "duration":0.6052733724608724,
            "velocity":98.0,
            "mute":0,
            "probability":1.0,
            "velocity_deviation":0.0,
            "release_velocity":0.0
        },
        {
            "note_id":118,
            "pitch":59,
            "start_time":58.5,
            "duration":0.5488282550782551,
            "velocity":105.0,
            "mute":0,
            "probability":1.0,
            "velocity_deviation":0.0,
            "release_velocity":0.0
        },
        {
            "note_id":125,
            "pitch":59,
            "start_time":62.0,
            "duration":0.5595703775391275,
            "velocity":107.0,
            "mute":0,
            "probability":1.0,
            "velocity_deviation":0.0,
            "release_velocity":0.0
        },
        {
            "note_id":127,
            "pitch":59,
            "start_time":63.0,
            "duration":0.49225253912753913,
            "velocity":101.0,
            "mute":0,
            "probability":1.0,
            "velocity_deviation":0.0,
            "release_velocity":0.0
        },
        {
            "note_id":3,
            "pitch":60,
            "start_time":1.0,
            "duration":0.5487629557942058,
            "velocity":99.0,
            "mute":0,
            "probability":1.0,
            "velocity_deviation":0.0,
            "release_velocity":0.0
        },
        {
            "note_id":7,
            "pitch":60,
            "start_time":3.0,
            "duration":0.5147134115884116,
            "velocity":97.0,
            "mute":0,
            "probability":1.0,
            "velocity_deviation":0.0,
            "release_velocity":0.0
        },
        {
            "note_id":11,
            "pitch":60,
            "start_time":5.0,
            "duration":0.5263671224608725,
            "velocity":96.0,
            "mute":0,
            "probability":1.0,
            "velocity_deviation":0.0,
            "release_velocity":0.0
        },
        {
            "note_id":15,
            "pitch":60,
            "start_time":7.0,
            "duration":0.5277342449217449,
            "velocity":86.0,
            "mute":0,
            "probability":1.0,
            "velocity_deviation":0.0,
            "release_velocity":0.0
        },
        {
            "note_id":18,
            "pitch":60,
            "start_time":8.5,
            "duration":0.5711587891275391,
            "velocity":97.0,
            "mute":0,
            "probability":1.0,
            "velocity_deviation":0.0,
            "release_velocity":0.0
        },
        {
            "note_id":22,
            "pitch":60,
            "start_time":10.5,
            "duration":0.5959634115884116,
            "velocity":99.0,
            "mute":0,
            "probability":1.0,
            "velocity_deviation":0.0,
            "release_velocity":0.0
        },
        {
            "note_id":26,
            "pitch":60,
            "start_time":12.5,
            "duration":0.5618490884115884,
            "velocity":100.0,
            "mute":0,
            "probability":1.0,
            "velocity_deviation":0.0,
            "release_velocity":0.0
        },
        {
            "note_id":30,
            "pitch":60,
            "start_time":14.5,
            "duration":0.5502604166666667,
            "velocity":101.0,
            "mute":0,
            "probability":1.0,
            "velocity_deviation":0.0,
            "release_velocity":0.0
        },
        {
            "note_id":36,
            "pitch":60,
            "start_time":17.5,
            "duration":0.5796224608724608,
            "velocity":91.0,
            "mute":0,
            "probability":1.0,
            "velocity_deviation":0.0,
            "release_velocity":0.0
        },
        {
            "note_id":40,
            "pitch":60,
            "start_time":19.5,
            "duration":0.5371095050782551,
            "velocity":90.0,
            "mute":0,
            "probability":1.0,
            "velocity_deviation":0.0,
            "release_velocity":0.0
        },
        {
            "note_id":44,
            "pitch":60,
            "start_time":21.5,
            "duration":0.5380208333333333,
            "velocity":99.0,
            "mute":0,
            "probability":1.0,
            "velocity_deviation":0.0,
            "release_velocity":0.0
        },
        {
            "note_id":48,
            "pitch":60,
            "start_time":23.5,
            "duration":0.5147134115884116,
            "velocity":100.0,
            "mute":0,
            "probability":1.0,
            "velocity_deviation":0.0,
            "release_velocity":0.0
        },
        {
            "note_id":51,
            "pitch":60,
            "start_time":25.0,
            "duration":0.48294257825507825,
            "velocity":99.0,
            "mute":0,
            "probability":1.0,
            "velocity_deviation":0.0,
            "release_velocity":0.0
        },
        {
            "note_id":55,
            "pitch":60,
            "start_time":27.0,
            "duration":0.4582032550782551,
            "velocity":104.0,
            "mute":0,
            "probability":1.0,
            "velocity_deviation":0.0,
            "release_velocity":0.0
        },
        {
            "note_id":59,
            "pitch":60,
            "start_time":29.0,
            "duration":0.5488282550782551,
            "velocity":103.0,
            "mute":0,
            "probability":1.0,
            "velocity_deviation":0.0,
            "release_velocity":0.0
        },
        {
            "note_id":61,
            "pitch":60,
            "start_time":30.0,
            "duration":0.6044270833333333,
            "velocity":102.0,
            "mute":0,
            "probability":1.0,
            "velocity_deviation":0.0,
            "release_velocity":0.0
        },
        {
            "note_id":63,
            "pitch":60,
            "start_time":31.0,
            "duration":0.5782553384115884,
            "velocity":104.0,
            "mute":0,
            "probability":1.0,
            "velocity_deviation":0.0,
            "release_velocity":0.0
        },
        {
            "note_id":67,
            "pitch":60,
            "start_time":33.0,
            "duration":0.48294257825507825,
            "velocity":106.0,
            "mute":0,
            "probability":1.0,
            "velocity_deviation":0.0,
            "release_velocity":0.0
        },
        {
            "note_id":69,
            "pitch":60,
            "start_time":34.0,
            "duration":0.6054037108724609,
            "velocity":97.0,
            "mute":0,
            "probability":1.0,
            "velocity_deviation":0.0,
            "release_velocity":0.0
        },
        {
            "note_id":75,
            "pitch":60,
            "start_time":37.0,
            "duration":0.4156900391275391,
            "velocity":104.0,
            "mute":0,
            "probability":1.0,
            "velocity_deviation":0.0,
            "release_velocity":0.0
        },
        {
            "note_id":77,
            "pitch":60,
            "start_time":38.0,
            "duration":0.5912761717449218,
            "velocity":105.0,
            "mute":0,
            "probability":1.0,
            "velocity_deviation":0.0,
            "release_velocity":0.0
        },
        {
            "note_id":82,
            "pitch":60,
            "start_time":40.5,
            "duration":0.6052733724608724,
            "velocity":100.0,
            "mute":0,
            "probability":1.0,
            "velocity_deviation":0.0,
            "release_velocity":0.0
        },
        {
            "note_id":86,
            "pitch":60,
            "start_time":42.5,
            "duration":0.5595703775391275,
            "velocity":96.0,
            "mute":0,
            "probability":1.0,
            "velocity_deviation":0.0,
            "release_velocity":0.0
        },
        {
            "note_id":88,
            "pitch":60,
            "start_time":43.5,
            "duration":0.5147134115884116,
            "velocity":95.0,
            "mute":0,
            "probability":1.0,
            "velocity_deviation":0.0,
            "release_velocity":0.0
        },
        {
            "note_id":90,
            "pitch":60,
            "start_time":44.5,
            "duration":0.6053386717449217,
            "velocity":95.0,
            "mute":0,
            "probability":1.0,
            "velocity_deviation":0.0,
            "release_velocity":0.0
        },
        {
            "note_id":94,
            "pitch":60,
            "start_time":46.5,
            "duration":0.5558592449217449,
            "velocity":113.0,
            "mute":0,
            "probability":1.0,
            "velocity_deviation":0.0,
            "release_velocity":0.0
        },
        {
            "note_id":96,
            "pitch":60,
            "start_time":47.5,
            "duration":0.43808587246087244,
            "velocity":97.0,
            "mute":0,
            "probability":1.0,
            "velocity_deviation":0.0,
            "release_velocity":0.0
        },
        {
            "note_id":100,
            "pitch":60,
            "start_time":49.5,
            "duration":0.5866537108724609,
            "velocity":96.0,
            "mute":0,
            "probability":1.0,
            "velocity_deviation":0.0,
            "release_velocity":0.0
        },
        {
            "note_id":108,
            "pitch":60,
            "start_time":53.5,
            "duration":0.5936199217449217,
            "velocity":96.0,
            "mute":0,
            "probability":1.0,
            "velocity_deviation":0.0,
            "release_velocity":0.0
        },
        {
            "note_id":115,
            "pitch":60,
            "start_time":57.0,
            "duration":0.4605467449217449,
            "velocity":100.0,
            "mute":0,
            "probability":1.0,
            "velocity_deviation":0.0,
            "release_velocity":0.0
        },
        {
            "note_id":117,
            "pitch":60,
            "start_time":58.0,
            "duration":0.6160807942057942,
            "velocity":84.0,
            "mute":0,
            "probability":1.0,
            "velocity_deviation":0.0,
            "release_velocity":0.0
        },
        {
            "note_id":123,
            "pitch":60,
            "start_time":61.0,
            "duration":0.5712240884115884,
            "velocity":111.0,
            "mute":0,
            "probability":1.0,
            "velocity_deviation":0.0,
            "release_velocity":0.0
        },
        {
            "note_id":126,
            "pitch":60,
            "start_time":62.5,
            "duration":0.5913412108724608,
            "velocity":101.0,
            "mute":0,
            "probability":1.0,
            "velocity_deviation":0.0,
            "release_velocity":0.0
        },
        {
            "note_id":4,
            "pitch":62,
            "start_time":1.5,
            "duration":0.5124349608724609,
            "velocity":100.0,
            "mute":0,
            "probability":1.0,
            "velocity_deviation":0.0,
            "release_velocity":0.0
        },
        {
            "note_id":8,
            "pitch":62,
            "start_time":3.5,
            "duration":0.5147134115884116,
            "velocity":94.0,
            "mute":0,
            "probability":1.0,
            "velocity_deviation":0.0,
            "release_velocity":0.0
        },
        {
            "note_id":12,
            "pitch":62,
            "start_time":5.5,
            "duration":0.5348307942057942,
            "velocity":99.0,
            "mute":0,
            "probability":1.0,
            "velocity_deviation":0.0,
            "release_velocity":0.0
        },
        {
            "note_id":16,
            "pitch":62,
            "start_time":7.5,
            "duration":0.5254557942057942,
            "velocity":106.0,
            "mute":0,
            "probability":1.0,
            "velocity_deviation":0.0,
            "release_velocity":0.0
        },
        {
            "note_id":19,
            "pitch":62,
            "start_time":9.0,
            "duration":0.5039712891275391,
            "velocity":106.0,
            "mute":0,
            "probability":1.0,
            "velocity_deviation":0.0,
            "release_velocity":0.0
        },
        {
            "note_id":23,
            "pitch":62,
            "start_time":11.0,
            "duration":0.5147136717449218,
            "velocity":97.0,
            "mute":0,
            "probability":1.0,
            "velocity_deviation":0.0,
            "release_velocity":0.0
        },
        {
            "note_id":27,
            "pitch":62,
            "start_time":13.0,
            "duration":0.5231120442057942,
            "velocity":99.0,
            "mute":0,
            "probability":1.0,
            "velocity_deviation":0.0,
            "release_velocity":0.0
        },
        {
            "note_id":31,
            "pitch":62,
            "start_time":15.0,
            "duration":0.5254557942057942,
            "velocity":96.0,
            "mute":0,
            "probability":1.0,
            "velocity_deviation":0.0,
            "release_velocity":0.0
        },
        {
            "note_id":52,
            "pitch":62,
            "start_time":25.5,
            "duration":0.5913412108724608,
            "velocity":99.0,
            "mute":0,
            "probability":1.0,
            "velocity_deviation":0.0,
            "release_velocity":0.0
        },
        {
            "note_id":56,
            "pitch":62,
            "start_time":27.5,
            "duration":0.5604817057942058,
            "velocity":91.0,
            "mute":0,
            "probability":1.0,
            "velocity_deviation":0.0,
            "release_velocity":0.0
        },
        {
            "note_id":58,
            "pitch":62,
            "start_time":28.5,
            "duration":0.5581379557942058,
            "velocity":106.0,
            "mute":0,
            "probability":1.0,
            "velocity_deviation":0.0,
            "release_velocity":0.0
        },
        {
            "note_id":68,
            "pitch":62,
            "start_time":33.5,
            "duration":0.6137370442057942,
            "velocity":104.0,
            "mute":0,
            "probability":1.0,
            "velocity_deviation":0.0,
            "release_velocity":0.0
        },
        {
            "note_id":76,
            "pitch":62,
            "start_time":37.5,
            "duration":0.65859375,
            "velocity":104.0,
            "mute":0,
            "probability":1.0,
            "velocity_deviation":0.0,
            "release_velocity":0.0
        },
        {
            "note_id":83,
            "pitch":62,
            "start_time":41.0,
            "duration":0.4466145833333333,
            "velocity":100.0,
            "mute":0,
            "probability":1.0,
            "velocity_deviation":0.0,
            "release_velocity":0.0
        },
        {
            "note_id":85,
            "pitch":62,
            "start_time":42.0,
            "duration":0.5488282550782551,
            "velocity":95.0,
            "mute":0,
            "probability":1.0,
            "velocity_deviation":0.0,
            "release_velocity":0.0
        },
        {
            "note_id":91,
            "pitch":62,
            "start_time":45.0,
            "duration":0.5016275391275391,
            "velocity":97.0,
            "mute":0,
            "probability":1.0,
            "velocity_deviation":0.0,
            "release_velocity":0.0
        },
        {
            "note_id":93,
            "pitch":62,
            "start_time":46.0,
            "duration":0.5604166666666667,
            "velocity":104.0,
            "mute":0,
            "probability":1.0,
            "velocity_deviation":0.0,
            "release_velocity":0.0
        },
        {
            "note_id":116,
            "pitch":62,
            "start_time":57.5,
            "duration":0.5147134115884116,
            "velocity":101.0,
            "mute":0,
            "probability":1.0,
            "velocity_deviation":0.0,
            "release_velocity":0.0
        },
        {
            "note_id":122,
            "pitch":62,
            "start_time":60.5,
            "duration":0.5703125,
            "velocity":111.0,
            "mute":0,
            "probability":1.0,
            "velocity_deviation":0.0,
            "release_velocity":0.0
        },
        {
            "note_id":20,
            "pitch":64,
            "start_time":9.5,
            "duration":0.5371745442057942,
            "velocity":87.0,
            "mute":0,
            "probability":1.0,
            "velocity_deviation":0.0,
            "release_velocity":0.0
        },
        {
            "note_id":24,
            "pitch":64,
            "start_time":11.5,
            "duration":0.6160807942057942,
            "velocity":88.0,
            "mute":0,
            "probability":1.0,
            "velocity_deviation":0.0,
            "release_velocity":0.0
        },
        {
            "note_id":28,
            "pitch":64,
            "start_time":13.5,
            "duration":0.6231120442057942,
            "velocity":95.0,
            "mute":0,
            "probability":1.0,
            "velocity_deviation":0.0,
            "release_velocity":0.0
        },
        {
            "note_id":32,
            "pitch":64,
            "start_time":15.5,
            "duration":0.4287761717449217,
            "velocity":102.0,
            "mute":0,
            "probability":1.0,
            "velocity_deviation":0.0,
            "release_velocity":0.0
        },
        {
            "note_id":57,
            "pitch":64,
            "start_time":28.0,
            "duration":0.6254557942057942,
            "velocity":92.0,
            "mute":0,
            "probability":1.0,
            "velocity_deviation":0.0,
            "release_velocity":0.0
        },
        {
            "note_id":84,
            "pitch":64,
            "start_time":41.5,
            "duration":0.6385416666666667,
            "velocity":89.0,
            "mute":0,
            "probability":1.0,
            "velocity_deviation":0.0,
            "release_velocity":0.0
        },
        {
            "note_id":92,
            "pitch":64,
            "start_time":45.5,
            "duration":0.6393879557942058,
            "velocity":98.0,
            "mute":0,
            "probability":1.0,
            "velocity_deviation":0.0,
            "release_velocity":0.0
        },
        {
            "note_id":120,
            "pitch":64,
            "start_time":59.5,
            "duration":0.57265625,
            "velocity":111.0,
            "mute":0,
            "probability":1.0,
            "velocity_deviation":0.0,
            "release_velocity":0.0
        }
    ]
}